<?xml version="1.0" encoding="UTF-8"?> <svg xmlns="http://www.w3.org/2000/svg" viewBox="0 0 1952.36 231.82"> <defs> <style>.cls-1{fill:#f7f3ed;}.cls-2{fill:none;stroke:#000;stroke-miterlimit:10;stroke-width:3px;}</style> </defs> <title>6Artboard 14</title> <g id="Layer_4" data-name="Layer 4"> <path class="cls-1" d="M1220.8,230.79c-80.31,0-101.74-21.93-90.88-50.43,24.31-63.81,184-158.79,382.65-163.4,217.68-5.05,264.26,82.05,272.71,116.66s-19,97.17-123.67,97.17H1220.8"></path> <path class="cls-1" d="M1813.06,230.79c-64.27,0-9.83-42.76,23.73-60.43,37.76-19.9,80.08-21.6,93.92,0S1916.11,230.79,1813.06,230.79Z"></path> </g> <g id="Layer_3" data-name="Layer 3"> <path class="cls-2" d="M1412,230.79h157.64V65.86H1412V96.72H1494V214.53H1428.3A16.26,16.26,0,0,0,1412,230.79Z"></path> <polyline class="cls-2" points="1569.68 153.94 1660 153.94 1660 230.79 1569.68 230.79"></polyline> <polyline class="cls-2" points="1493.94 153.94 1454.56 153.94 1454.56 181.4"></polyline> <line class="cls-2" x1="1438.86" y1="96.72" x2="1438.86" y2="108.11"></line> <polyline class="cls-2" points="1465.56 96.72 1465.56 108.11 1428.64 108.11"></polyline> <polyline class="cls-2" points="1447.08 108.13 1447.12 116.77 1458.31 116.72 1458.27 108.08"></polyline> <line class="cls-2" x1="1440.85" y1="78.53" x2="1440.85" y2="81.65"></line> <line class="cls-2" x1="1452.7" y1="78.53" x2="1452.7" y2="81.65"></line> <line class="cls-2" x1="1464.54" y1="78.53" x2="1464.54" y2="81.65"></line> <line class="cls-2" x1="1519.49" y1="96.72" x2="1540.77" y2="96.72"></line> <line class="cls-2" x1="1519.49" y1="107.47" x2="1540.77" y2="107.47"></line> <line class="cls-2" x1="1519.49" y1="118.23" x2="1540.77" y2="118.23"></line> <path class="cls-2" d="M1538.31,192.36a12.74,12.74,0,1,1-8.18-3"></path> <line class="cls-2" x1="1516.62" y1="7.03" x2="1511" y2="42.39"></line> <line class="cls-2" x1="1534.24" y1="21.72" x2="1526.03" y2="38.91"></line> <path class="cls-2" d="M1461.21,214.88s10-12.58,10-33.48h-49c0,20.9,10,33.48,10,33.48"></path> <path class="cls-2" d="M1422.21,181.4h-6.34a4,4,0,0,0-4,4v9.4a4,4,0,0,0,4,4h8.85"></path> <path class="cls-2" d="M1058.26,225.47A55.4,55.4,0,0,0,1070.43,191h-59.8a55.4,55.4,0,0,0,12.17,34.48"></path> <path class="cls-2" d="M1010.63,191h-11a4,4,0,0,0-4,4v9.4a4,4,0,0,0,4,4h14"></path> <path class="cls-2" d="M1048,123.55c1.7-4.63,2.39-10.44,1-18.08"></path> <path class="cls-2" d="M1035.91,179.12s7.26-4.42,7.26-12.39-10.12-12.57-10.09-19.83c0-4.24,3.23-7.36,7.17-11.6"></path> <path class="cls-2" d="M1043.17,152.74s8.9,5.67,6.58,18.77"></path> <path class="cls-2" d="M1068.66,230.79H1012.4c-10,0-10-5.32-10-5.32h76.26S1078.66,230.79,1068.66,230.79Z"></path> <polyline class="cls-2" points="1256.17 230.79 1187.14 230.79 1175.14 142.18"></polyline> <line class="cls-2" x1="1261.31" y1="142.18" x2="1256.5" y2="177.65"></line> <rect class="cls-2" x="1158.85" y="125.05" width="112.89" height="17.13" rx="2.66"></rect> <path class="cls-2" d="M1174.64,22.86s43.52,58.69,47.73,102.19"></path> <path class="cls-2" d="M1229,98.39c-9.93,7.2-31.9,15.29-51.86-11.24-24.71-32.85-12.92-80.57-12.92-80.57s55.87,13.26,69.63,59.13"></path> <path class="cls-2" d="M1193.51,51.74s9.87-12.24,13.89-23.65"></path> <path class="cls-2" d="M1200.45,64s14.83-18,17-26.66"></path> <path class="cls-2" d="M1168.32,71.49s9.24,4.71,25.19,4.15"></path> <path class="cls-2" d="M1161.49,29.86s-17.17,33.38-6.22,58.41c9.83,22.46,31,20.24,39.64,14.19"></path> <path class="cls-2" d="M1188.46,105.45s4.39,11,5,19.6"></path> <path class="cls-2" d="M1198.5,103.88a80,80,0,0,1,3.09,21.17"></path> <path class="cls-2" d="M1261.19,25.68S1230.53,48.15,1232.63,79s22.85,26.46,30.84,14.86C1272.59,80.62,1277.37,61.48,1261.19,25.68Z"></path> <path class="cls-2" d="M1255.29,53.29s-10.29,19.38-13.9,71.76"></path> <path class="cls-2" d="M1247.66,78s13.32-1.54,24.18-9.79"></path> <path class="cls-2" d="M1238.17,203.29l31-43.38H1296l31,43.38a17.39,17.39,0,0,1-14.15,27.5h-60.48A17.39,17.39,0,0,1,1238.17,203.29Z"></path> <path class="cls-2" d="M1269.17,159.91h-31.46a13.27,13.27,0,0,0-11.45,20l12.9,22"></path> <path class="cls-2" d="M1316.35,188.46l16.41-23.1a12.94,12.94,0,0,1,10.55-5.45h12.21v4.93H1347a7.15,7.15,0,0,0-6.68,4.58L1327,203.29"></path> <line class="cls-2" x1="1309.17" y1="203.29" x2="1314.25" y2="212.79"></line> <line class="cls-2" x1="1294.54" y1="175.93" x2="1304.27" y2="194.13"></line> </g> </svg> 