<?xml version="1.0" encoding="UTF-8"?> <svg xmlns="http://www.w3.org/2000/svg" viewBox="0 0 1952.36 243.96"> <defs> <style>.cls-1{fill:#f7f3ed;}.cls-2{fill:none;stroke:#000;stroke-miterlimit:10;stroke-width:3px;}</style> </defs> <title>6Artboard 15</title> <g id="Layer_4" data-name="Layer 4"> <path class="cls-1" d="M223,242.83c-64.33,0-153.2-64-117.65-118S272.46,82.6,340,102.85s156.4,75.07,143.71,109.45-75,30.53-105,30.53Z"></path> <path class="cls-1" d="M447.29,97.53c-20,23.69,39.78,56.28,51.63,42.85S464.22,77.43,447.29,97.53Z"></path> <path class="cls-1" d="M775,213.45c-35.4-24.71-28.78-99.6,68.64-77.52,90.32,20.47,105.26,72.34,99.11,85.47C933,242.2,884.87,249.11,833.78,237,811.85,231.81,797.59,229.24,775,213.45Z"></path> </g> <g id="Layer_3" data-name="Layer 3"> <path class="cls-2" d="M442.1,236.5a67.24,67.24,0,0,1-14.77-41.86h72.61a67.24,67.24,0,0,1-14.77,41.86"></path> <path class="cls-2" d="M499.94,194.64h13.3a4.83,4.83,0,0,1,4.83,4.83v11.41a4.83,4.83,0,0,1-4.83,4.83h-17"></path> <path class="cls-2" d="M429.48,243h68.31c12.14,0,12.14-6.46,12.14-6.46H417.34S417.34,243,429.48,243Z"></path> <path class="cls-2" d="M340,243H296.82a16.47,16.47,0,0,1-15.91-20.7l11.75-44.17h51.55L356,222.26A16.47,16.47,0,0,1,340,243Z"></path> <path class="cls-2" d="M292.66,178.09V167.3h51.55v10.79h18.53a7.31,7.31,0,0,1,6.12,11.3c-2.74,4.21-5.66,8.64-7.57,11.42-4.55,6.64-8.9,11.05-6.62,15.76,2.18,4.5,12,4.79,14-6.47"></path> <polyline class="cls-2" points="292.65 167.3 281.55 156.24 348.22 159.81 344.21 167.3"></polyline> <line class="cls-2" x1="295.53" y1="220.33" x2="294.15" y2="227.66"></line> <line class="cls-2" x1="300.94" y1="191.73" x2="297.06" y2="212.25"></line> <path class="cls-2" d="M295.14,243H253.69a25.65,25.65,0,0,1-24.79-32.24l18.3-68.82h54.43l4.16,15.64"></path> <circle class="cls-2" cx="318.49" cy="58.32" r="8.38"></circle> <line class="cls-2" x1="316.26" y1="66.39" x2="296.54" y2="141.9"></line> <circle class="cls-2" cx="293.61" cy="93.69" r="8.38"></circle> <line class="cls-2" x1="292.33" y1="102.06" x2="287.96" y2="141.39"></line> <circle class="cls-2" cx="270.54" cy="107.43" r="8.38"></circle> <circle class="cls-2" cx="258.53" cy="75.73" r="8.38"></circle> <path class="cls-2" d="M257.22,84.1a8.88,8.88,0,0,1,.18,1.72A8.38,8.38,0,1,1,249,77.44a9.1,9.1,0,0,1,1.29.1"></path> <line class="cls-2" x1="270.54" y1="115.81" x2="270.54" y2="141.39"></line> <line class="cls-2" x1="260.27" y1="84.1" x2="264.91" y2="141.9"></line> <line class="cls-2" x1="250.83" y1="94.2" x2="257.4" y2="141.9"></line> <path class="cls-2" d="M804.89,169.62H719.23A52.15,52.15,0,0,0,723.82,243H802a52.62,52.62,0,0,0,17.51-39,51,51,0,0,0-13.13-34.32Z"></path> <polyline class="cls-2" points="726.41 169.62 720.44 156.66 744.04 144.71 750.25 155.73"></polyline> <polyline class="cls-2" points="741.18 169.62 743.77 154.85 770.49 158.5 769.04 169.62"></polyline> <polyline class="cls-2" points="755.83 156.5 759.03 148.68 785.13 158.67 781.13 169.62"></polyline> <polyline class="cls-2" points="773.98 154.4 797.01 151.23 799.57 169.62"></polyline> <line class="cls-2" x1="789.86" y1="152.22" x2="809.47" y2="108.39"></line> <circle class="cls-2" cx="811.46" cy="104.52" r="3.87"></circle> <path class="cls-2" d="M723,195.2s-4.36,16.07,5.45,27"></path> </g> </svg> 